<?xml version="1.0" encoding="utf-8"?>
<!-- Generator: Adobe Illustrator 25.0.0, SVG Export Plug-In . SVG Version: 6.00 Build 0)  -->
<svg version="1.1" id="Layer_1" xmlns="http://www.w3.org/2000/svg" xmlns:xlink="http://www.w3.org/1999/xlink" x="0px" y="0px"
	 viewBox="0 0 250 200" style="enable-background:new 0 0 250 200;" xml:space="preserve">
<style type="text/css">
	.st0{fill:#FFFFFF;}
</style>
<g>
	<path class="st0" d="M117.57,115.34c-2.47,2.02-4.6,3.71-6.64,5.5c-0.43,0.38-0.75,1.16-0.73,1.74
		c0.62,15.25-4.88,28.66-12.63,41.31c-6.36,10.39-14.26,19.48-24.8,25.84c-3.58,2.16-7.61,3.88-11.66,4.89
		c-11.46,2.85-20.68-3.62-22.65-15.31c-1.57-9.34,0.12-18.27,3.3-26.98c6.06-16.6,15.65-30.72,29.85-41.47
		c5.07-3.84,10.61-6.8,17.01-7.7c9.1-1.28,15.18,1.96,19.33,10.12c0.2,0.39,0.45,0.75,0.96,1.6c2.39-2.63,4.77-4.95,6.78-7.54
		c1.71-2.2,3.51-4.56,4.35-7.14c1.31-4.05,4.64-4.14,8.16-5.49c-0.47,2.21-0.86,3.87-1.17,5.55c-1.21,6.62-2.47,13.24-3.52,19.89
		c-0.28,1.76-0.1,3.65,0.2,5.42c0.42,2.47,2.03,3.39,4.09,2.06c1.97-1.27,4.24-2.9,5.09-4.92c2.12-5.06,3.87-10.34,5.08-15.69
		c1.04-4.55,1.23-9.3,1.58-13.98c0.13-1.78,0.7-2.66,2.41-3.27c16.72-5.89,33.41-11.86,50.11-17.8
		c17.62-6.28,35.25-12.56,52.87-18.82c0.61-0.22,1.26-0.33,2.31-0.59c-0.4,2.23-0.57,4.19-1.18,6c-0.24,0.7-1.41,1.25-2.27,1.56
		c-22.19,7.93-44.39,15.81-66.58,23.71c-4.21,1.5-8.4,3.06-12.63,4.48c-1.34,0.45-1.89,1.17-2.16,2.54
		c-4.47,22.74-9.02,45.46-13.44,68.21c-0.39,2.03-1.27,3.06-3.17,3.54c-1.37,0.35-2.69,0.88-4.7,1.55
		c4.81-24.36,9.53-48.19,14.35-72.58c-3.22,1.16-6.03,1.98-8.64,3.22c-0.7,0.33-0.99,1.87-1.17,2.9c-1.14,6.4-1.84,12.9-3.41,19.18
		c-0.89,3.58-2.88,6.98-4.84,10.17c-2.24,3.66-5.75,5.94-9.9,7.21c-4.42,1.35-8.43-0.39-9.36-4.91c-0.8-3.86-0.53-7.94-0.71-11.93
		C117.4,116.83,117.5,116.25,117.57,115.34z M79.34,113.92c-0.35,0.12-0.58,0.15-0.76,0.27c-0.64,0.4-1.29,0.8-1.89,1.25
		c-16.3,12.33-26.59,28.58-31.18,48.41c-1.36,5.87-1.61,11.85,0.53,17.7c1.21,3.32,3.55,5.02,6.97,5.73
		c7.95,1.65,14.74-0.97,20.74-5.77c14.95-11.94,23.9-27.71,28.56-46.04c0.86-3.37,1.01-6.92,1.54-10.78
		c-1.41,0.28-2.14,0.4-2.86,0.56C90.59,127.62,82.57,123.47,79.34,113.92z M96.29,119.9c0.05-0.1,0.1-0.21,0.16-0.31
		c1.41-0.23,2.81-0.48,4.22-0.7c1.65-0.26,1.87-1.09,1.28-2.56c-1.95-4.91-7.27-7.76-12.27-6.48c-1.8,0.46-3.24,1.37-3.52,3.36
		c-0.28,2.03,0.58,3.71,2.42,4.43C91.07,118.6,93.72,119.16,96.29,119.9z"/>
	<path class="st0" d="M250,30.02c-0.55,2.59-0.75,4.57-1.45,6.35c-0.3,0.76-1.55,1.31-2.48,1.65c-14.68,5.3-29.37,10.55-44.06,15.81
		C161,68.49,119.97,83.13,78.96,97.82c-9.06,3.24-18.04,6.7-27.08,9.99c-1.57,0.57-2.38,1.45-2.89,3.1
		c-3.71,11.97-8.67,23.31-17.65,32.41c-5.09,5.17-11.06,8.7-18.52,9.14c-6.78,0.4-11.86-3.05-12.68-8.78
		c-0.65-4.52,0.89-8.53,3.4-12.19c4.33-6.33,10.22-11.01,16.74-14.78c7.14-4.13,14.55-7.78,21.92-11.5
		c1.51-0.76,2.36-1.62,2.68-3.27c3.29-16.72,6.63-33.42,9.95-50.13c2.85-14.34,5.66-28.68,8.57-43c0.16-0.79,0.95-1.71,1.69-2.09
		c1.53-0.77,3.22-1.2,5.52-2.01c-6.4,32.35-12.69,64.12-19.05,96.28C117.8,77.3,183.57,53.78,250,30.02z M41.84,112.79
		c-0.52-0.12-0.69-0.22-0.8-0.18c-1.78,0.83-3.58,1.63-5.34,2.52c-8.73,4.44-17.36,9.12-24.07,16.42c-2.13,2.32-3.83,5.29-4.9,8.26
		c-1.42,3.92,0.65,6.29,4.79,6.39c4.29,0.1,8.04-1.42,11.37-3.95C32.74,134.78,37.65,124.12,41.84,112.79z"/>
	<path class="st0" d="M111.22,35.48c-0.9,3.85-1.72,7.03-2.38,10.25c-0.95,4.59-1.95,9.19-2.61,13.82c-0.32,2.2-0.09,4.53,0.22,6.75
		c0.25,1.82,1.45,2.23,2.64,0.83c1.7-1.99,3.48-4.14,4.38-6.54c2.4-6.36,4.38-12.88,6.44-19.36c0.57-1.8,0.93-3.67,1.28-5.53
		c0.85-4.54,1.53-5.19,6.46-5.73c0.38,5.12,0.5,10.4,5.27,14.44c0.52-2.38,0.9-4.34,1.37-6.29c1.57-6.51,5.18-11.75,10.35-15.88
		c1.56-1.25,3.45-2.28,5.35-2.88c6.36-2.01,11.4,2.08,10.26,8.65c-0.62,3.56-1.99,7.19-3.84,10.29
		c-3.43,5.76-8.16,10.33-14.71,12.62c-0.26,0.09-0.48,0.32-0.71,0.48c1.21,2.24,2.87,3.02,5.46,2.57c4.28-0.75,7.68-3.15,10.8-5.96
		c2.13-1.92,4.11-4.03,6.02-6.19c0.91-1.03,1.56-1.11,2.65-0.33c4.15,2.97,4.15,2.19,0.77,5.97c-4.17,4.66-8.73,8.86-14.6,11.34
		c-6.21,2.63-11.87,2.12-15.24-2.23c-2.5-3.24-4.87-6.29-8.7-8.01c-0.9-0.4-1.54-1.39-2.49-2.29c-0.99,3.12-1.71,6.13-2.91,8.93
		c-1.93,4.51-4.05,8.95-6.38,13.26c-0.9,1.67-2.42,3.15-3.97,4.28c-5.21,3.82-11.52,0.84-12.61-5.89c-1-6.19,0.35-12.21,1.54-18.24
		c0.1-0.52,0.24-1.03,0.33-1.55c0.03-0.21-0.04-0.44-0.06-0.65c-2.65-0.29-3.64,0.4-4.21,2.76c-2.26,9.36-4.44,18.8-9.88,26.93
		c-2.06,3.08-4.9,5.71-7.7,8.2c-1.7,1.51-4.04,2.14-6.37,0.95c-2.41-1.22-3-3.53-2.71-5.81c0.94-7.5,2.11-14.97,3.27-22.43
		c0.26-1.71,0.79-3.39,1.21-5.08c1.05-4.15,3-5.65,7.96-5.91c-1.98,10.46-4.74,20.72-5.54,31.29c0.18,0.08,0.36,0.17,0.54,0.25
		c0.54-0.67,1.12-1.32,1.63-2.01c5.34-7.22,7.82-15.65,10.13-24.15c0.44-1.61,1.13-3.22,1.17-4.84c0.08-3.49,1.99-4.9,5.08-5.83
		C101.02,39.29,105.74,37.43,111.22,35.48z M139.7,44.94c1.09-0.43,1.81-0.61,2.43-0.98c5.98-3.5,9.77-8.71,11.61-15.32
		c0.27-0.96-0.21-2.12-0.34-3.19c-1.21,0.18-2.84-0.07-3.54,0.62c-2.67,2.63-5.33,5.36-7.44,8.43
		C140.45,37.38,139.74,40.86,139.7,44.94z"/>
	<path class="st0" d="M170.26,96.35c2.03-2.28,1.31-6.3,5.52-6.46c0,0.54,0.08,1.04-0.01,1.5c-0.76,4.01-1.58,8-2.31,12.02
		c-0.32,1.76-1.21,2.62-3.33,2.49c0.23-1.27,0.43-2.41,0.64-3.55c-0.1-0.05-0.2-0.1-0.3-0.14c-0.54,1.06-1.08,2.12-1.81,3.56
		c-0.34-1-0.57-1.65-0.86-2.51c-1.32,1.72-0.13,5.24-3.93,4.99c0-0.54-0.09-1.11,0.01-1.65c0.77-3.93,1.67-7.84,2.34-11.78
		c0.34-1.98,1.43-2.61,3.38-2.71C169.81,93.49,170.01,94.8,170.26,96.35z"/>
	<path class="st0" d="M188.86,94.71c-1.69,1.99,0.09,5.94-4.22,6.14c0.03-0.66-0.01-1.24,0.1-1.79c0.77-3.86,1.57-7.72,2.38-11.57
		c0.12-0.59,0.18-1.32,0.56-1.69c0.49-0.47,1.26-0.78,1.93-0.84c0.25-0.02,0.69,0.84,0.84,1.36c0.22,0.75,0.26,1.55,0.42,2.63
		c1.7-2.02,0.13-5.7,4.15-5.94c0,0.73,0.11,1.39-0.02,2C194.2,89,193.29,92.99,192.5,97c-0.29,1.48-1.07,2.06-2.74,1.89
		C189.48,97.61,189.2,96.3,188.86,94.71z"/>
	<path class="st0" d="M186.12,90.74c-1.16,3.18-2.24,6.28-3.44,9.33c-0.29,0.73-0.88,1.57-1.56,1.89c-1.48,0.69-3.11,1.08-4.67,1.58
		c-0.46-1.5-1.51-3.11-1.25-4.47c0.58-2.99,1.72-5.88,2.84-8.73c0.36-0.91,1.24-1.85,2.12-2.28c1.21-0.59,2.82-1.24,3.93-0.87
		C184.97,87.49,185.35,89.28,186.12,90.74z M181.71,90.81c-2.55,1.1-4.23,6.46-2.92,9.33C181.25,99.13,182.99,93.57,181.71,90.81z"
		/>
	<path class="st0" d="M221.92,87.73c-0.29-0.86-0.54-1.62-0.92-2.73c-1,1.78-0.55,4.63-3.86,4.15c0.13-0.77,0.23-1.55,0.39-2.31
		c0.83-3.84,1.65-7.69,2.54-11.52c0.43-1.85,4.25-4.06,5.93-3.27c0.69,0.32,1.49,1.59,1.36,2.24c-0.47,2.33-1.35,4.57-2.03,6.86
		c-0.34,1.15-0.99,2.42-0.75,3.47C225.11,87.05,223.91,87.52,221.92,87.73z M221.71,80.26c2.43-1.22,2.88-2.65,1.41-4.77
		C222.65,77.08,222.18,78.67,221.71,80.26z"/>
	<path class="st0" d="M212.11,88.13c-0.88,1.54-0.14,4.43-3.69,4.12c0.27-1.51,0.49-2.96,0.79-4.39c0.59-2.81,1.21-5.61,1.86-8.41
		c0.62-2.68,2.18-4.02,4.92-4.38c1.69-0.22,2.87,0.47,2.6,2.18c-0.34,2.2-0.81,4.49-1.82,6.43c-0.8,1.55-1.44,2.78-0.91,4.56
		c0.43,1.45-1.07,2.99-2.24,2.37C212.95,90.27,212.67,89.11,212.11,88.13z M213.05,83.54c0.29,0.1,0.59,0.2,0.88,0.3
		c0.53-1.36,1.1-2.7,1.54-4.08c0.08-0.26-0.37-0.68-0.57-1.03c-0.32,0.26-0.84,0.46-0.93,0.79
		C213.6,80.83,213.35,82.19,213.05,83.54z"/>
	<path class="st0" d="M77.09,43.73c0.73-3.46,1.33-6.83,2.24-10.11c0.18-0.63,1.57-0.99,2.45-1.35c1.3-0.52,2.66-0.93,4.6-1.6
		c-0.54,2.58-0.99,4.65-1.42,6.72C84.03,42.02,82.49,43.34,77.09,43.73z"/>
	<path class="st0" d="M207.12,84.02c0.57-0.04,1.13-0.09,1.82-0.14c0.17,1.55-0.05,2.61-1.62,3.34c-0.86,0.4-1.39,1.52-2.08,2.32
		c0.17,0.18,0.34,0.36,0.51,0.54c0.64,0,1.27,0,1.88,0c0.5,2.62,0.08,3.37-5.97,4.69c0.42-2.24,0.79-4.32,1.22-6.4
		c0.44-2.14,1.12-4.26,1.36-6.42c0.25-2.24,1.36-3.35,3.47-3.75c0.85-0.16,1.66-0.53,2.66-0.86c0.24,1.74,0,2.81-1.49,3.6
		c-0.95,0.51-1.6,1.57-2.38,2.38C206.71,83.56,206.91,83.79,207.12,84.02z"/>
	<path class="st0" d="M234.74,69c0.15,1.65-0.15,2.7-1.67,3.47c-0.96,0.48-1.59,1.62-2.37,2.46c0.15,0.19,0.3,0.38,0.44,0.57
		c0.62-0.03,1.25-0.06,2.01-0.09c0.1,1.5-0.08,2.59-1.65,3.32c-0.9,0.42-1.47,1.51-2.2,2.3c0.15,0.18,0.3,0.37,0.44,0.55
		c0.64,0.03,1.28,0.07,1.93,0.1c0.34,2.91-1.21,4.11-5.99,4.45c0.87-3.88,1.7-7.69,2.56-11.48C229.27,70.19,229.6,69.9,234.74,69z"
		/>
	<path class="st0" d="M235.72,83.64c0-5.28,0.02-9.62-0.01-13.95c-0.01-2.08,1.61-1.76,3.03-2.21c0.12,1.4,0.23,2.65,0.37,4.22
		c2.16-2.02,1.5-6.25,5.9-6.2c-0.54,1.25-1,2.29-1.44,3.35c-1.67,4.03-3.25,8.11-5.05,12.08C238.08,81.9,236.91,82.53,235.72,83.64z
		"/>
	<path class="st0" d="M195.68,85.06c0.81-4.73,5.04-3.59,7.62-5.4c0.6,1.74,0.57,2.84-1.01,3.65c-0.62,0.32-1.21,1.11-1.38,1.8
		c-0.75,3.01-1.39,6.05-1.95,9.1c-0.32,1.75-1.14,2.72-3.5,2.67c0.77-3.89,1.53-7.66,2.3-11.57
		C197.06,85.22,196.5,85.16,195.68,85.06z"/>
</g>
</svg>
