<?xml version="1.0" encoding="UTF-8"?>
<svg width="101px" height="54px" viewBox="0 0 101 54" version="1.1" xmlns="http://www.w3.org/2000/svg" xmlns:xlink="http://www.w3.org/1999/xlink">
    <title>LOGO_TDM-03</title>
    <g id="Page-1" stroke="none" stroke-width="1" fill="none" fill-rule="evenodd">
        <g id="Index-Desktop" transform="translate(-98.000000, -23.000000)" fill="#FFFFFE">
            <g id="LOGO_TDM-03" transform="translate(98.000000, 23.000000)">
                <polyline id="Fill-4" points="18 54 14.4221621 54 13.8152225 43.101349 13.7698909 43.101349 10.4396978 54 7.55946274 54 4.20744334 43.101349 4.13944595 43.101349 3.57741815 54 0 54 1.16980692 38 5.75963063 38 9 48.5271012 9.04491186 48.5271012 12.2403694 38 16.8528589 38 18 54"></polyline>
                <polyline id="Fill-5" points="26.9067296 41.8782595 22.9073803 53 19 53 25.0469606 37 28.9534732 37 35 53 30.9073803 53 26.9067296 41.8782595"></polyline>
                <path d="M49,51.755633 C48.1981437,52.6152536 46.5256152,54 43.2938267,54 C38.6429749,54 35,50.8002515 35,45.5 C35,40.1752515 38.6891372,37 43.2938267,37 C46.5478415,37 48.3126946,38.4083525 48.7247359,38.8622144 L47.579227,42.0619629 C47.2813092,41.6557588 45.5856995,40.3422763 43.5002748,40.3422763 C40.8198693,40.3422763 38.7575258,42.2044907 38.7575258,45.4282907 C38.7575258,48.6520908 40.9113391,50.4902536 43.5002748,50.4902536 C45.4711486,50.4902536 46.8914942,49.6782907 47.7625939,48.7469608 L49,51.755633" id="Fill-6"></path>
                <polyline id="Fill-7" points="64 54 60.2263401 54 60.2263401 47.2978292 53.7740944 47.2978292 53.7740944 54 50 54 50 38 53.7740944 38 53.7740944 44.1904788 60.2263401 44.1904788 60.2263401 38 64 38 64 54"></polyline>
                <polygon id="Fill-8" points="67 54 70 54 70 38 67 38"></polygon>
                <path d="M88,54 L84.2755672,54 L77.4779229,43.1476305 C77.4779229,43.1476305 77.5448866,45.0719905 77.5448866,46.7645103 L77.5448866,54 L74,54 L74,38 L77.8813787,38 L84.5224956,48.7589414 C84.5224956,48.7589414 84.4551134,46.9505015 84.4551134,45.2571166 L84.4551134,38 L88,38 L88,54" id="Fill-9"></path>
                <path d="M58.8529098,23.2435648 C58.1888242,22.6171317 57.0919733,22.1070733 55.558516,22.1070733 L53.6831997,22.1070733 L53.6831997,31.8228423 L55.558516,31.8228423 C57.0919733,31.8228423 58.1888242,31.3132165 58.8529098,30.6638546 C59.5161418,30.0382868 60.2480871,28.9710145 60.2480871,26.9995674 C60.2480871,25.0289855 59.5161418,23.8929267 58.8529098,23.2435648 Z M61.4379782,33.0986372 C60.1345609,34.2117673 58.0979179,35 55.3532299,35 L50,35 L50,19 L55.3532299,19 C58.0979179,19 60.1345609,19.7886654 61.4379782,20.9247242 C62.7648691,22.0378542 64,23.8929267 64,26.9995674 C64,30.1075059 62.7648691,31.9621458 61.4379782,33.0986372 L61.4379782,33.0986372 Z" id="Fill-10"></path>
                <polygon id="Fill-11" points="67 35 70 35 70 19 67 19"></polygon>
                <polyline id="Fill-12" points="88 19 82.2343894 35 78.7660308 35 73 19 76.8738549 19 80.5224809 30.0144928 84.148836 19 88 19"></polyline>
                <polyline id="Fill-13" points="84.3856826 0 84.3856826 6.19121782 78.2054661 6.19121782 78.2054661 0 64 0 64 2.96820247 67.9714206 2.96820247 67.9714206 16 71.5857381 16 71.5857381 2.96820247 74.5928135 2.96820247 74.5928135 16 78.2054661 16 78.2054661 9.29872377 84.3856826 9.29872377 84.3856826 16 88 16 88 0 84.3856826 0"></polyline>
                <polygon id="Fill-14" points="91 3 101 3 101 0 91 0"></polygon>
                <polygon id="Fill-15" points="91 16 101 16 101 13 91 13"></polygon>
                <polygon id="Fill-16" points="91 9 101 9 101 6 91 6"></polygon>
                <polygon id="Fill-17" points="91 22 101 22 101 19 91 19"></polygon>
                <polygon id="Fill-18" points="91 35 101 35 101 32 91 32"></polygon>
                <polygon id="Fill-19" points="91 28 101 28 101 25 91 25"></polygon>
                <polygon id="Fill-20" points="91 41 101 41 101 38 91 38"></polygon>
                <polygon id="Fill-21" points="91 53 101 53 101 50 91 50"></polygon>
                <polygon id="Fill-22" points="91 47 101 47 101 44 91 44"></polygon>
            </g>
        </g>
    </g>
</svg>