<?xml version="1.0" encoding="utf-8"?>
<!-- Generator: Adobe Illustrator 25.0.0, SVG Export Plug-In . SVG Version: 6.00 Build 0)  -->
<svg version="1.1" id="Layer_1" xmlns="http://www.w3.org/2000/svg" xmlns:xlink="http://www.w3.org/1999/xlink" x="0px" y="0px"
	 viewBox="0 0 255 150" style="enable-background:new 0 0 255 150;" xml:space="preserve">
<style type="text/css">
	.st0{fill:#FFFFFF;}
	.st1{fill:#A6051F;}
</style>
<g>
	<path class="st0" d="M108.69,84.79c-0.46,18.34-14.35,36.6-32.56,42.23c-12.26,3.79-24.32,3.19-35.96-2.35
		c-9.87-4.7-17.37-12.03-22.08-21.86C7.65,81,14.2,58.28,30.31,44.89c17.94-14.91,40.23-13.06,52.75-5.12
		c-1.82,0-3.68-0.2-5.47,0.04c-5.85,0.77-10.99,3.36-15.75,6.68c-6.4,4.46-12.22,9.57-16.3,16.3c-3.1,5.1-6.42,10.18-8.67,15.66
		c-3.12,7.6-5.03,15.65-2.08,23.87c1.57,4.37,4.61,7.51,8.62,9.98c4.53,2.8,9.3,3.57,14.47,3.41c6.05-0.18,11.66-1.93,16.82-4.81
		c5.85-3.27,11.7-6.68,17-10.76c5.58-4.3,10.5-9.45,15.7-14.23C107.74,85.6,108.11,85.3,108.69,84.79z"/>
	<path class="st0" d="M214.92,73.99c1.14-1.31,2.14-2.66,3.33-3.81c5.6-5.4,12.29-8.34,20.11-8.23c3.1,0.04,6.22,0.43,9.27,0.99
		c2.53,0.46,4.34,2.31,5.84,4.28c1.86,2.43,1.5,5.2,0.3,7.7c-1.11,2.31-3.4,3.07-5.9,3.15c-2.98,0.1-3.14,0.02-3.32-2.96
		c-0.1-1.71-1.32-2.32-2.61-2.53c-5.88-0.98-11.22,0.2-15.72,4.31c-1.06,0.97-0.92,3.54,0.45,4.25c2.44,1.25,5.05,2.18,7.57,3.29
		c4.32,1.9,8.77,3.57,12.91,5.81c6.51,3.54,6.14,10.78,2.01,15.13c-4.9,5.16-11.28,7.57-17.98,9.34c-4.22,1.12-8.52,1.46-12.86,1.26
		c-2.61-0.12-4.92-0.88-6.78-2.86c-2.07-2.2-2.14-5.89-0.17-8.18c1.6-1.86,3.7-2.13,5.57-1.24c5.95,2.85,11.6,1.44,17.25-0.75
		c1.55-0.6,3.08-1.35,4.44-2.29c1.99-1.38,1.76-2.57-0.59-3.5c-2.23-0.88-4.52-1.62-6.75-2.5c-3.29-1.29-6.68-2.43-9.81-4.05
		c-2.33-1.21-4.32-3.07-6.59-4.73c0.16-0.18-0.04-0.04-0.12,0.15c-1.79,4.03-3.04,8.42-5.49,12c-2.67,3.9-6.3,7.19-9.78,10.46
		c-6.23,5.85-13.98,7.46-22.21,6.97c-3.73-0.22-6.48-2.61-8.88-5.34c-5.41-6.15-6.03-13.16-3.87-20.73
		c2.32-8.15,6.41-15.25,12.57-21.08c5.73-5.43,12.53-7.73,20.45-6.83c6.71,0.76,11.79,4.14,15.8,9.34
		C214.04,71.73,214.4,72.91,214.92,73.99z M203.81,79.93c-0.05-4.56-2.82-7.71-7.16-8.51c-4.64-0.86-8.49,0.42-11.47,3.95
		c-2.34,2.77-4.49,5.73-6.49,8.75c-2.87,4.31-4.22,9.16-3.79,14.32c0.28,3.32,3.15,7.23,7.37,6.48c2.38-0.43,4.78-1.11,6.99-2.09
		c3.23-1.43,5.52-4.11,7.9-6.68C201.43,91.53,203.64,86.17,203.81,79.93z"/>
	<path class="st0" d="M243.62,133.67c-0.04,3.84-0.1,7.68-0.09,11.53c0,1.21-0.35,1.5-1.6,1.37c-7.52-0.77-15.04-1.58-22.58-2.11
		c-7.54-0.52-15.11-0.91-22.67-1.03c-14.32-0.23-28.64-0.34-42.96-0.29c-8.11,0.03-16.22,0.37-24.32,0.73
		c-9.59,0.43-19.17,1.05-28.76,1.57c-6.11,0.33-12.23,0.58-18.34,0.98c-5.56,0.36-11.12,0.88-16.68,1.3
		c-5.86,0.45-11.72,0.93-17.59,1.3c-6.17,0.39-12.35,0.66-18.52,0.97c-0.64,0.03-1.28,0-1.92,0c-0.06-0.17-0.11-0.34-0.17-0.51
		c0.37-0.25,0.72-0.62,1.13-0.74c3.62-1.1,7.25-2.15,10.87-3.22c0.69-0.2,1.36-0.46,2.04-0.69c0.53-0.09,1.07-0.14,1.59-0.27
		c6.06-1.45,12.08-3.12,18.19-4.31c8.71-1.69,17.46-3.29,26.26-4.45c12.49-1.65,25.02-3.12,37.58-4.19
		c10.3-0.87,20.65-1.26,30.98-1.47c10.05-0.2,20.11-0.02,30.16,0.22c10.22,0.24,20.44,0.73,30.65,1.18
		c3.18,0.14,6.35,0.47,9.52,0.73C232.13,132.73,237.87,133.2,243.62,133.67z"/>
	<path class="st0" d="M96.03,49.25c0.6,0.38,1.02,0.52,1.24,0.81c4.73,6.27,8.88,12.83,10.5,20.68c0.46,2.24,0.44,4.01-1.56,5.73
		c-5.6,4.81-10.81,10.07-16.5,14.74c-6.45,5.29-13.5,9.75-21.39,12.71c-4.46,1.68-9.05,2.37-13.81,1.78
		c-4.35-0.53-8.68-4.98-9.11-10.48c-0.48-6.13,1.22-11.73,3.81-17.18c2.6-5.49,5.61-10.76,9.62-15.3c4.4-4.99,9.05-9.82,15.4-12.49
		c3.17-1.33,6.42-1.46,9.73-0.81c1.76,0.34,2.4,1.8,1.28,3.24c-1.54,1.99-3.39,3.72-4.96,5.69c-0.83,1.04-1.77,2.28-1.93,3.52
		c-0.35,2.77,2.47,4.15,5.56,2.75c3.14-1.42,5.87-3.41,8.2-6.02C94.46,55.99,96.06,53.12,96.03,49.25z"/>
	<path class="st1" d="M243.62,133.67c-5.74-0.47-11.49-0.94-17.23-1.41c-3.17-0.26-6.34-0.59-9.52-0.73
		c-10.22-0.44-20.43-0.93-30.65-1.18c-10.05-0.24-20.11-0.42-30.16-0.22c-10.33,0.21-20.69,0.59-30.98,1.47
		c-12.56,1.07-25.09,2.54-37.58,4.19c-8.8,1.16-17.55,2.76-26.26,4.45c-6.11,1.19-12.13,2.86-18.19,4.31
		c-0.52,0.12-1.06,0.18-1.59,0.27c-1.01-0.8-0.03-1.1,0.42-1.32c2.37-1.17,4.73-2.36,7.17-3.36c8.14-3.34,16.6-5.68,25.17-7.59
		c9.32-2.08,18.66-4.08,28.03-5.9c5.05-0.98,10.19-1.58,15.3-2.25c6.78-0.89,13.56-1.8,20.36-2.5c5.01-0.52,10.05-0.87,15.09-1.02
		c13.16-0.37,26.33-0.79,39.49-0.8c9.48,0,18.98,0.51,28.45,1.02c7.19,0.39,14.36,1.13,21.53,1.79c0.47,0.04,1.27,0.69,1.28,1.06
		C243.77,127.19,243.67,130.43,243.62,133.67z"/>
	<path class="st0" d="M146.63,93.13c2.62,2.06,5.09,4.13,7.69,6.01c3.11,2.24,6.38,4.24,9.49,6.47c1.8,1.29,2.38,3.77,1.58,5.47
		c-1.2,2.53-4.09,4.42-6.37,3.73c-1.84-0.56-3.71-1.45-5.19-2.65c-4.79-3.88-9.42-7.97-14.1-11.99c-0.96-0.82-1.94-1.62-2.79-2.54
		c-2.19-2.36-4.96-1.05-7.49-1.21c-0.25-0.02-0.75,0.99-0.81,1.56c-0.43,4.05-1.01,8.1-1.1,12.16c-0.08,3.65-1.77,5.12-5.73,4.69
		c-4.71-0.51-6.66-3.97-6.1-8.69c0.36-3.02,1.11-6,1.56-9.02c0.4-2.66,0.72-5.34,0.9-8.02c0.26-3.71,0.34-7.44,0.53-11.15
		c0.06-1.08-0.2-1.76-1.46-1.69c-0.35,0.02-0.71-0.12-1.06-0.2c-2.4-0.56-3.25-1.35-3.36-3.13c-0.23-3.56,0.52-4.84,2.9-5.87
		c5.98-2.56,12.28-3.29,18.68-3.31c4.31-0.01,8.63,0.14,12.92,0.53c5.73,0.53,9.94,5.57,10.12,11.27
		c0.24,7.52-3.03,12.87-9.43,16.53C147.58,92.33,147.18,92.7,146.63,93.13z M133.32,72.67c0,0.09,0,0.19,0,0.28
		c-0.36,0-0.72,0-1.08,0c-2.43-0.01-2.43-0.01-2.43,2.33c0,2.65,0,5.3,0,7.95c0,3.87,0.02,4.01,3.77,3.47
		c3.95-0.57,7.74-1.69,10.84-4.48c1.92-1.73,2.42-3.86,1.93-6.22c-0.43-2.07-2.26-2.67-4.03-3.15c-0.57-0.16-1.19-0.16-1.79-0.16
		C138.12,72.66,135.72,72.67,133.32,72.67z"/>
	<path class="st0" d="M77.6,32.13c-1.86-0.4-3.4-0.82-4.97-1.05c-2.95-0.43-5.92-0.85-8.89-1.08c-1.17-0.09-1.87-0.41-2.38-1.47
		c-1.79-3.67-3.58-7.34-5.49-10.95c-2.45-4.63-7.21-6.25-11.95-3.91c-8.02,3.96-15.9,8.22-23.97,12.07
		c-2.44,1.17-4.47,2.44-5.83,4.78c-1.35,2.32-1.41,4.81-0.42,7.1c1.7,3.96,3.77,7.76,5.65,11.64c0.16,0.32,0.25,0.85,0.09,1.12
		c-2.44,4.09-4.93,8.15-7.45,12.3c-0.1-0.13-0.45-0.51-0.67-0.94c-3.02-6-6.19-11.93-8.98-18.03c-3.18-6.96-2.78-13.87,1.22-20.5
		c2.29-3.78,5.58-6.33,9.49-8.28c8.42-4.21,16.77-8.56,25.16-12.81c3.74-1.89,7.73-2.33,11.88-2.04c6.81,0.48,11.85,3.94,15.77,9.22
		c1.24,1.67,2.15,3.59,3.1,5.45c2.79,5.44,5.53,10.92,8.28,16.38C77.37,31.33,77.41,31.57,77.6,32.13z"/>
</g>
</svg>
