<?xml version="1.0" encoding="utf-8"?>
<!-- Generator: Adobe Illustrator 25.0.0, SVG Export Plug-In . SVG Version: 6.00 Build 0)  -->
<svg version="1.1" id="Layer_1" xmlns="http://www.w3.org/2000/svg" xmlns:xlink="http://www.w3.org/1999/xlink" x="0px" y="0px"
	 viewBox="0 0 300 76" style="enable-background:new 0 0 300 76;" xml:space="preserve">
<style type="text/css">
	.st0{fill:#FFFFFF;}
</style>
<g>
	<path class="st0" d="M142.7,0c0.12,0.05,0.23,0.13,0.35,0.13c13.01,0.57,22.66,6.75,29.38,17.68c2.98,4.83,4.47,10.2,5,15.82
		c1.14,12.3-2.95,22.77-11.53,31.49c-5.96,6.05-13.3,9.53-21.75,10.45c-11.27,1.22-20.95-2.32-29.09-10.14
		c-5.85-5.62-8.91-12.59-9.73-20.56c-0.7-6.86,0.92-13.27,4.23-19.29c3.37-6.12,8.57-10.19,14.84-12.98c3.91-1.74,8-2.84,12.32-2.77
		c6.87,0.11,13.23,1.82,18.76,6.07c1.52,1.17,2.97,2.4,3.73,4.25c0.83,2,0.85,3.96-0.02,5.96c-1.31,3-3.22,5.59-5.49,7.91
		c-6.45,6.57-14.12,11.09-23.04,13.42c-3.42,0.9-6.89,1.39-10.43,0.66c-0.56-0.12-1.11-0.32-1.86-0.54
		c1.73-0.47,3.24-0.82,4.72-1.29c8.13-2.55,15.23-6.85,21.28-12.84c2.12-2.1,3.9-4.49,5.17-7.2c0.27-0.58,0.44-1.24,0.52-1.89
		c0.12-0.95-0.31-1.69-1.11-2.21c-3.02-1.93-6.28-3.22-9.83-3.76c-7.5-1.14-13.81,1.34-18.95,6.68c-3.45,3.58-5.37,8.05-6.09,12.98
		c-1.47,10.1,4.08,22.29,17.01,26.73c13.24,4.54,27.11-0.28,34.61-11.56c2.78-4.18,4.11-8.86,4.95-13.77
		c1.89-10.97-4.45-26.16-19.73-32.24c-4.84-1.92-9.85-2.97-15.06-2.64c-7.5,0.48-14.07,3.28-19.74,8.21
		c-0.14,0.12-0.28,0.25-0.42,0.37c-0.03,0.02-0.09,0-0.27-0.02c0.46-0.51,0.85-0.98,1.27-1.42c5.05-5.23,10.94-9.07,18.08-10.77
		c1.76-0.42,3.58-0.54,5.38-0.8c0.14-0.02,0.28-0.09,0.42-0.14C141.28,0,141.99,0,142.7,0z"/>
	<path class="st0" d="M298.46,42.74c-6.63-0.01-13.27-0.01-19.9-0.02c-0.28,0-0.56,0-0.83,0c-0.03,3.48,1.62,8.03,6.92,8.26
		c1.89,0.08,3.72-0.06,5.41-1.03c1.4-0.8,2.42-1.95,3.01-3.45c0.17-0.43,0.38-0.55,0.82-0.54c1.36,0.03,2.73,0.01,4.16,0.01
		c-0.33,1.8-1.22,3.22-2.32,4.53c-1.52,1.81-3.45,2.99-5.73,3.56c-3.27,0.82-6.53,0.92-9.75-0.26c-4.48-1.63-7.46-5.72-7.72-10.47
		c-0.15-2.84,0.07-5.61,1.43-8.17c2.11-3.99,5.5-6.16,9.95-6.71c2.85-0.35,5.59,0.08,8.21,1.27c3.61,1.64,5.53,4.48,6.08,8.34
		c0.08,0.57,0.19,1.13,0.28,1.7C298.46,40.76,298.46,41.75,298.46,42.74z M277.79,39.3c5.23,0,10.41,0,15.59,0
		c-0.25-4.15-2.4-6.35-5.17-6.94c-1.27-0.27-2.62-0.32-3.92-0.21C280.73,32.45,277.75,35.79,277.79,39.3z"/>
	<path class="st0" d="M23.35,54.11c-1.69,0-3.29,0-4.94,0c0-0.3,0-0.55,0-0.8c0-5.24,0.01-10.47-0.01-15.71
		c0-0.61-0.06-1.23-0.16-1.83c-0.3-1.84-1.33-2.85-3.3-3.16c-1.39-0.22-2.77-0.09-4.1,0.45c-2.58,1.05-3.94,3-4.18,5.72
		c-0.14,1.5-0.14,3.01-0.15,4.52c-0.02,3.58-0.01,7.17-0.01,10.81c-1.6,0-3.17,0-4.78,0c0-8.25,0-16.49,0-24.78
		c1.56,0,3.11,0,4.72,0c0,1.06,0,2.11,0,3.16c0.04,0.04,0.09,0.09,0.13,0.13c2.18-2.4,4.78-3.86,8.08-3.89
		c3.26-0.03,6.08,0.77,7.83,3.79c0.38-0.36,0.73-0.69,1.09-1.02c2.18-2.02,4.81-2.83,7.72-2.75c1.06,0.03,2.13,0.11,3.15,0.36
		c3.5,0.85,5.53,3.35,5.62,7.12c0.1,4.36,0.04,8.73,0.04,13.09c0,1.58,0,3.16,0,4.8c-1.65,0-3.27,0-4.98,0c0-0.24,0-0.49,0-0.73
		c0-5.35,0-10.71,0-16.06c0-0.38,0.01-0.76-0.04-1.13c-0.28-2.25-1.55-3.42-4.18-3.56c-1.15-0.06-2.38,0.09-3.47,0.45
		c-2.62,0.85-4.01,2.85-4.06,5.76c-0.07,4.79-0.03,9.58-0.04,14.36C23.35,53.46,23.35,53.75,23.35,54.11z"/>
	<path class="st0" d="M94.53,31.79c0-4.29,0-8.35,0-12.47c1.58,0,3.09,0,4.65,0c0,11.38,0,22.74,0,34.13c-1.42,0-2.83,0-4.32,0
		c0-1.04,0-2.08,0-3.22c-0.16,0.11-0.22,0.14-0.26,0.18c-3.15,3.83-7.33,4.65-11.84,3.54c-4.63-1.15-7.49-4.36-8.47-9.02
		c-0.87-4.14-0.3-8.1,2.05-11.73c2.1-3.25,5.14-4.84,8.94-5c1.35-0.06,2.74,0.08,4.07,0.31C91.41,28.87,93.02,30.07,94.53,31.79z
		 M79.07,41.26c0,0.35-0.02,0.71,0,1.06c0.18,2.36,0.79,4.57,2.46,6.33c3.76,3.94,10.78,2.19,12.55-3.11
		c0.8-2.4,0.83-4.86,0.41-7.33c-0.54-3.24-2.75-5.61-5.71-6.2c-3.43-0.68-6.66,0.62-8.36,3.41C79.34,37.2,79.07,39.21,79.07,41.26z"
		/>
	<path class="st0" d="M70.35,42.59c-7.07,0-13.94,0-20.8,0c-0.4,4.3,2.51,7.85,6.74,8.26c2.64,0.25,5.11-0.18,7.05-2.15
		c0.64-0.65,1.08-1.53,1.54-2.34c0.19-0.34,0.32-0.55,0.76-0.54c1.39,0.03,2.78,0.01,4.23,0.01c-0.41,2.05-1.45,3.65-2.8,5.07
		c-2.08,2.2-4.74,3.19-7.68,3.51c-3.07,0.34-6.08,0.12-8.86-1.41c-3.98-2.2-5.96-5.62-6.2-10.1c-0.14-2.67,0.11-5.28,1.36-7.7
		c2.14-4.15,5.61-6.36,10.2-6.87c2.83-0.32,5.53,0.14,8.13,1.34c3.49,1.62,5.4,4.38,5.94,8.12C70.19,39.34,70.22,40.91,70.35,42.59z
		 M65.26,39.19c-0.31-2.75-1.13-5.16-3.75-6.39c-1.08-0.51-2.34-0.75-3.54-0.84c-3.11-0.22-5.63,0.93-7.33,3.62
		c-0.69,1.09-1.02,2.29-1.04,3.61C54.84,39.19,60,39.19,65.26,39.19z"/>
	<path class="st0" d="M239.07,28.1c2.8,0.03,5.42,0.65,7.82,2.14c2.93,1.82,4.6,4.46,5.08,7.86c0.48,3.38,0.18,6.67-1.31,9.79
		c-1.74,3.64-4.63,5.75-8.58,6.42c-2.63,0.45-5.26,0.48-7.86-0.24c-4.49-1.23-7.73-4.94-8.32-9.56c-0.39-3.06-0.29-6.08,0.97-8.95
		c1.86-4.24,5.19-6.59,9.73-7.25C237.42,28.19,238.25,28.17,239.07,28.1z M238.91,50.95c0.33,0,0.66,0.02,0.99,0
		c2.79-0.21,4.86-1.44,5.99-4.11c1.24-2.91,1.55-5.91,0.93-8.99c-0.53-2.61-1.91-4.6-4.53-5.51c-1.54-0.54-3.14-0.6-4.75-0.41
		c-2.67,0.32-4.51,1.73-5.65,4.14c-1.11,2.33-1.4,4.78-1.1,7.3c0.11,0.97,0.35,1.95,0.7,2.87
		C232.75,49.49,235.12,50.97,238.91,50.95z"/>
	<path class="st0" d="M181.69,45.73c1.55,0,3.05,0,4.59,0c0.04,0.24,0.08,0.44,0.11,0.65c0.36,2.14,1.64,3.46,3.69,4.02
		c2.75,0.76,5.5,0.77,8.19-0.31c0.5-0.2,0.98-0.48,1.39-0.82c1.78-1.49,1.45-4.11-0.72-4.92c-1.56-0.59-3.22-0.9-4.83-1.31
		c-2.39-0.62-4.79-1.21-7.18-1.83c-0.4-0.11-0.79-0.31-1.16-0.51c-3.79-1.97-4.49-6.38-1.52-9.48c1.64-1.71,3.68-2.61,5.98-2.95
		c3.29-0.49,6.56-0.45,9.66,0.91c2.58,1.13,4.29,3.03,4.7,5.91c0.03,0.21,0.03,0.42,0.05,0.67c-1.54,0-3.04,0-4.58,0
		c-0.42-2.58-2.22-3.6-4.59-3.94c-1.76-0.25-3.53-0.32-5.27,0.14c-1.73,0.46-2.74,1.48-2.82,2.78c-0.08,1.26,0.75,2.41,2.49,2.97
		c1.77,0.57,3.61,0.9,5.41,1.35c2.01,0.51,4.03,0.97,6.02,1.56c5.25,1.57,5.07,7.2,2.77,10.01c-1.55,1.9-3.57,2.98-5.94,3.42
		c-3.57,0.67-7.15,0.67-10.64-0.43C184.06,52.54,181.61,49.15,181.69,45.73z"/>
	<path class="st0" d="M212.2,32.85c-1.3,0-2.54,0-3.82,0c0-1.17,0-2.27,0-3.46c1.23,0,2.46,0,3.8,0c0-2.33,0-4.58,0-6.87
		c1.67,0,3.25,0,4.91,0c0,2.24,0,4.49,0,6.82c1.55,0,3.03,0,4.54,0c0,1.18,0,2.28,0,3.46c-1.46,0-2.94,0-4.48,0
		c-0.01,0.29-0.03,0.52-0.03,0.74c0,5.05,0,10.1,0,15.14c0,1.59,0.61,2.22,2.22,2.28c0.75,0.03,1.5,0,2.34,0
		c0,1,0.01,1.99-0.02,2.97c0,0.14-0.21,0.37-0.36,0.4c-2.01,0.39-4.04,0.52-6.03-0.03c-1.7-0.47-2.79-1.99-2.97-3.99
		c-0.06-0.63-0.09-1.27-0.09-1.91c-0.01-4.88,0-9.77,0-14.65C212.2,33.48,212.2,33.2,212.2,32.85z"/>
	<path class="st0" d="M256.26,29.3c1.5,0,2.96,0,4.49,0c0,1.29,0,2.57,0,4.06c2.46-3.14,5.23-5.24,9.35-4.5c0,1.45,0,2.88,0,4.23
		c-1.27,0.1-2.52,0.08-3.73,0.31c-3.21,0.62-5.33,3.29-5.33,6.55c0,4.43,0,8.87,0,13.3c0,0.26,0,0.52,0,0.83c-1.6,0-3.16,0-4.79,0
		C256.26,45.86,256.26,37.62,256.26,29.3z"/>
</g>
</svg>
