<?xml version="1.0" encoding="utf-8"?>
<!-- Generator: Adobe Illustrator 25.0.0, SVG Export Plug-In . SVG Version: 6.00 Build 0)  -->
<svg version="1.1" id="Layer_1" xmlns="http://www.w3.org/2000/svg" xmlns:xlink="http://www.w3.org/1999/xlink" x="0px" y="0px"
	 viewBox="0 0 300 70" style="enable-background:new 0 0 300 70;" xml:space="preserve">
<style type="text/css">
	.st0{fill:#FFFFFF;}
</style>
<g>
	<path class="st0" d="M6.65,18.44c-0.74,11.9-1.47,23.8-2.21,35.81c-1.47,0-2.85,0-4.43,0c0.9-12.82,1.79-25.58,2.69-38.47
		c1.68,0,3.21-0.09,4.72,0.06c0.44,0.04,1.02,0.7,1.18,1.19c3.34,10.71,6.64,21.44,9.94,32.16c0.16,0.51,0.33,1.02,0.6,1.9
		c0.29-0.69,0.49-1.07,0.61-1.48c3.32-10.72,6.66-21.43,9.92-32.17c0.38-1.26,0.88-1.82,2.25-1.68c1.35,0.13,2.72,0.03,4.28,0.03
		C37,28.65,37.8,41.4,38.61,54.27c-1.59,0-3.03,0-4.62,0c-0.68-11.99-1.35-23.9-2.02-35.8c-0.08-0.04-0.16-0.07-0.23-0.11
		c-0.13,0.39-0.28,0.78-0.4,1.18c-3.35,10.99-6.73,21.98-10.01,32.99c-0.42,1.41-1.09,1.66-2.4,1.69c-1.32,0.03-1.75-0.49-2.09-1.66
		c-3.16-11-6.37-21.97-9.57-32.96c-0.12-0.4-0.27-0.8-0.41-1.19C6.79,18.43,6.72,18.43,6.65,18.44z"/>
	<path class="st0" d="M65.62,15.11c11.69,0,18.57,6.33,19.63,15.86c0.49,4.46,0.23,8.83-1.44,13.02
		c-3.01,7.56-9.73,11.49-18.32,10.82C58.43,54.26,52.56,49,50.79,41.42c-1.34-5.73-1.04-11.4,1.64-16.74
		C55.61,18.32,60.89,15.23,65.62,15.11z M80.46,36.12c0.01-6.9-2.18-13.1-5.49-16.64c-4.17-4.45-9.9-4.58-14.17-0.27
		c-2.98,3.01-4.52,6.78-5.3,10.86c-1.46,7.66-0.07,14.7,5.29,20.56c4.26,4.66,10.31,4.34,14.4-0.49
		C78.89,45.78,80.28,40.6,80.46,36.12z"/>
	<path class="st0" d="M102.23,54.23c-1.48,0-2.95,0-4.55,0c0-12.78,0-25.52,0-38.53c1.5,0,3.07-0.07,4.62,0.05
		c0.38,0.03,0.79,0.67,1.04,1.11c5.9,10.57,11.78,21.16,17.67,31.74c0.24,0.44,0.52,0.86,1.09,1.16c0-11.28,0-22.57,0-33.97
		c1.41,0,2.91,0,4.49,0c0,12.79,0,25.54,0,38.49c-1.35,0-2.7,0.07-4.04-0.05c-0.41-0.04-0.9-0.54-1.12-0.95
		c-6.03-10.94-12.03-21.89-18.04-32.84c-0.27-0.49-0.57-0.97-1.16-1.33C102.23,30.82,102.23,42.5,102.23,54.23z M122.26,49.92
		c-0.12,0.04-0.24,0.08-0.36,0.12c0.08,0.24,0.16,0.49,0.24,0.73c0.07-0.01,0.14-0.02,0.21-0.03
		C122.32,50.46,122.29,50.19,122.26,49.92z"/>
	<path class="st0" d="M170.38,54.11c-0.23,0.1-0.28,0.14-0.33,0.15c-4.9,0.25-4.9,0.25-6.36-4.42c-0.96-3.07-1.87-6.15-2.88-9.19
		c-0.15-0.44-0.72-1.05-1.1-1.06c-3.94-0.08-7.87-0.05-11.9-0.05c-1.35,4.45-2.74,8.8-3.97,13.2c-0.35,1.24-0.86,1.69-2.12,1.57
		c-1.13-0.11-2.28-0.02-3.63-0.02c1.4-4.14,2.72-8.1,4.07-12.05c2.83-8.3,5.69-16.59,8.47-24.9c0.42-1.25,0.95-1.69,2.29-1.66
		c4.3,0.09,4.34,0.01,5.75,4.1c3.8,11.02,7.57,22.05,11.35,33.08C170.16,53.25,170.26,53.67,170.38,54.11z M159.76,38.16
		c-1.92-5.89-3.83-11.7-5.66-17.31c-1.8,5.59-3.66,11.39-5.56,17.31C152.4,38.16,156.05,38.16,159.76,38.16z"/>
	<path class="st0" d="M186.85,52.28c5.63,0,10.98,0,16.41,0c0,0.71,0,1.28,0,1.93c-7.15,0-14.25,0-21.45,0c0-12.81,0-25.56,0-38.42
		c1.65,0,3.26,0,5.04,0C186.85,27.86,186.85,39.96,186.85,52.28z"/>
	<path class="st0" d="M220.59,5.29c3.55,9.59,4.76,19.28,1.2,29.19c-1.4,3.89-2.93,7.77-3.94,11.76
		c-1.35,5.34-1.14,10.81-0.27,16.25c0.12,0.73,0.15,1.46,0.08,2.21c-3.83-9.81-4.85-19.71-1.11-29.82c1.49-4.03,3-8.09,3.94-12.27
		c1.14-5.03,0.89-10.19-0.01-15.29c-0.12-0.66-0.23-1.32-0.34-1.99C220.3,5.33,220.45,5.31,220.59,5.29z"/>
	<path class="st0" d="M234.75,50.52c0.51-0.54,0.92-0.97,1.34-1.43c1.6,0.93,3.11,1.93,4.72,2.71c5.14,2.48,10.75,0.14,12.66-5.2
		c1.04-2.92,0.39-5.47-2.21-7.19c-1.76-1.16-3.77-1.94-5.67-2.9c-1.94-0.99-4-1.8-5.79-3.02c-3.25-2.21-4.69-5.39-4.16-9.34
		c0.56-4.13,2.92-6.87,6.8-8.25c5.24-1.87,9.85-0.5,14.09,2.95c-0.27,0.29-0.47,0.53-0.7,0.75c-0.19,0.18-0.4,0.35-0.66,0.56
		c-0.95-0.62-1.83-1.25-2.77-1.79c-6.48-3.76-11.65,1.12-12.56,6.01c-0.36,1.96,0.49,3.64,2.09,4.67c1.92,1.22,4.03,2.14,6.07,3.17
		c1.75,0.88,3.62,1.58,5.26,2.63c4.05,2.59,5.6,6.47,4.69,11.14c-0.92,4.74-4.01,7.31-8.52,8.47
		C243.9,55.9,239.3,53.75,234.75,50.52z"/>
	<path class="st0" d="M300,54.28c-1.55,0-3.03,0.09-4.48-0.06c-0.43-0.04-0.98-0.72-1.14-1.22c-1.31-4.04-2.58-8.09-3.76-12.16
		c-0.3-1.03-0.76-1.36-1.82-1.33c-3.34,0.07-6.68,0.07-10.02,0c-1.01-0.02-1.42,0.31-1.7,1.28c-1.17,4.08-2.46,8.13-3.64,12.21
		c-0.27,0.93-0.61,1.39-1.66,1.31c-1.24-0.1-2.5-0.02-4.03-0.02c4.42-12.97,8.78-25.77,13.15-38.58c1.78,0,3.42-0.08,5.05,0.05
		c0.48,0.04,1.19,0.54,1.34,0.98c4.21,12.14,8.37,24.3,12.52,36.46C299.93,53.49,299.93,53.82,300,54.28z M283.78,20.89
		c-1.82,5.65-3.68,11.41-5.56,17.22c3.77,0,7.45,0,11.2,0C287.5,32.24,285.62,26.49,283.78,20.89z"/>
</g>
</svg>
