<svg xmlns="http://www.w3.org/2000/svg" xmlns:xlink="http://www.w3.org/1999/xlink" width="249" height="81" viewBox="0 0 249 81">
  <defs>
    <polygon id="logo-white-a" points="0 81 249 81 249 0 0 0"/>
  </defs>
  <g fill="none" fill-rule="evenodd">
    <path fill="#FFFFFE" d="M239.972974 20.9653285L239.514517 20.9653285 239.514517 20.1394479C239.514517 20.0409407 239.487501 19.9607218 239.435925 19.9083509 239.385167 19.8555644 239.313942 19.8297946 239.222251 19.8297946 239.134243 19.8297946 239.06261 19.8555644 239.014308 19.9083509 238.958638 19.9607218 238.935715 20.0409407 238.935715 20.1394479L238.935715 20.9653285 238.478895 20.9653285 238.478895 20.1394479C238.478895 20.0409407 238.45147 19.9607218 238.399484 19.9083509 238.349545 19.8555644 238.279548 19.8297946 238.188676 19.8297946 238.098622 19.8297946 238.028625 19.8555644 237.975002 19.9083509 237.924654 19.9607218 237.900093 20.0409407 237.900093 20.1394479L237.900093 20.9653285 237.437543 20.9653285 237.437543 19.4386755 237.900093 19.4386755 237.900093 19.6643691C237.995059 19.5022687 238.145286 19.4224654 238.354866 19.4224654 238.467843 19.4224654 238.568131 19.4498978 238.654092 19.4989436 238.740052 19.5496519 238.808002 19.6223892 238.858351 19.7171556 238.911974 19.6298708 238.985654 19.5567178 239.073662 19.5039313 239.162897 19.4498978 239.263594 19.4224654 239.372477 19.4224654 239.555451 19.4224654 239.702812 19.4806553 239.808421 19.5932943 239.917304 19.7096741 239.972974 19.8696962 239.972974 20.0737765L239.972974 20.9653285zM237.136271 20.9653285L236.903768 20.9653285C236.731437 20.9653285 236.602496 20.928752 236.509167 20.8526896 236.417476 20.777874 236.371221 20.6448686 236.371221 20.463233L236.371221 19.8297946 236.231228 19.8297946 236.231228 19.4386755 236.371221 19.4386755 236.371221 19.0675072 236.831725 19.0675072 236.831725 19.4386755 237.134634 19.4386755 237.134634 19.8297946 236.831725 19.8297946 236.831725 20.463233C236.831725 20.5322296 236.880026 20.5721312 236.971718 20.5721312L237.136271 20.5721312 237.136271 20.9653285zM236.364262 17.5046933C236.364262 17.5046933 234.962693 18.301479 235.000762 20.6486093L235.000762 26 240.994679 21.4690866 240.994679 14.3458141C240.994679 14.2277718 240.997953 14.1163798 241 14L236.364262 17.5046933zM23.9570213 38.8468054L24 13.7732285C24 13.7732285 23.3778723 12.3864819 21.6361702 13.3272439L8 23.4637623 8 59 22.7442553 59 23.9570213 59 23.9570213 44.0068724 22.7442553 41.5145806 23.9570213 38.8468054z"/>
    <polygon fill="#FFFFFE" points="46.805 24 30.881 24 24 38.969 24 44.098 31.329 59 47 59 38.032 41.496"/>
    <path fill="#FFFFFE" d="M122.22431 36.205003C122.679685 33.4382107 125.093132 31.7966913 128.302745 32.0124679 130.881091 32.1916434 132.635787 33.8459306 132.667075 36.205003L122.22431 36.205003zM146 41.5632424C146.0442 30.0155768 138.553128 22.7119433 129.137811 22.0561016 118.703925 21.3296111 108.801098 27.6862961 108.053133 39.5323036 107.636657 46.1183842 109.643352 51.7468764 114.96452 55.8606764 121.913538 61.2304068 133.472544 61.3789394 140.617327 56.287548 142.325513 55.0707723 143.782122 53.6211962 144.874261 51.7358109 144.533893 51.5494004 144.265403 51.393207 143.993108 51.2514839 140.963193 49.7070002 137.922284 48.1846473 134.912663 46.6010088 134.255181 46.2579794 133.876336 46.2992621 133.309759 46.8155086 130.84938 49.0622239 126.514647 49.2614023 123.943489 47.301538 123.083054 46.6456963 122.355806 45.8745184 122.3279 44.6036921L145.866616 44.6036921C145.916508 43.5043806 145.995998 42.5335987 146 41.5632424L146 41.5632424zM163.476812 33.1680622C164.073351 32.9497869 164.77866 32.968545 165.436808 32.9868767 167.763905 33.0580719 169.798682 34.0339161 171.82411 35.2079985 174.220039 32.3341823 176.589625 29.5008665 179 26.6121292 178.810501 26.4552438 178.73997 26.380638 178.654568 26.3243639 178.453172 26.1866629 178.249227 26.055783 178.036785 25.9304452 173.677036 23.3533471 168.945087 22.0245109 163.898723 22 159.985528 21.9835842 156.298373 22.9500493 153.064145 25.2700771 147.90816 28.9654099 146.613959 35.9472356 150.188945 40.7284027 152.010004 43.1656683 154.578436 44.4352461 157.416671 45.250368 159.057154 45.7227294 160.706984 46.1597063 162.33302 46.6687312 163.085917 46.9061908 163.817145 47.3128991 163.659087 48.2832011 163.50273 49.2462556 162.637663 49.5054576 161.903036 49.4142253 160.296119 49.2125764 158.657336 48.9772484 157.14347 48.4400865 155.835672 47.9749725 154.680834 47.0720289 153.400654 46.3310866 150.956713 49.1716498 148.48303 52.0531397 146 54.9478454 146.172503 55.110273 146.267678 55.2147211 146.377723 55.2965744 146.604187 55.4611335 146.8332 55.6214294 147.069437 55.7710674 152.534313 59.1858823 158.527321 60.4102703 164.881058 59.8820611 167.609672 59.6565384 170.222717 58.887459 172.581256 57.4187902 176.455786 55.0109407 178.287892 51.4929566 178.096269 46.9432806 177.919516 42.6771067 175.58732 39.839954 171.885719 38.0971621 170.327239 37.3600566 168.614101 36.9362956 166.954924 36.4357971 165.755047 36.0738523 164.497386 35.8947983 163.324278 35.4689057 162.925735 35.3256625 162.449864 34.6614576 162.479606 34.2675388 162.505948 33.8663727 163.043004 33.3304898 163.476812 33.1680622M191.148797 20.9998262C195.512645 20.9695898 199.00891 17.4220007 199 13.039024 198.986806 8.70140195 195.26865 4.95166112 191.033601 5.00047125 186.623419 5.05014527 182.983478 8.72386324 183 13.1033843 183.022586 17.5468336 186.610242 21.0283347 191.148797 20.9998262"/>
    <mask id="logo-white-b" fill="#fff">
      <use xlink:href="#logo-white-a"/>
    </mask>
    <polygon fill="#FFFFFE" points="49 59 64 59 64 24 49 24" mask="url(#logo-white-b)"/>
    <path fill="#FFFFFE" d="M57.1917935 5.00110934C52.8756359 4.92723545 49.0909724 8.55310432 49.0016814 12.8403821 48.9123904 17.3756343 52.3896377 20.9233092 56.9966289 20.9989111 61.3429754 21.0706249 64.9129152 17.5912078 64.9983795 13.1959272 65.0876705 8.86501631 61.4747859 5.07498323 57.1917935 5.00110934M226.625544 38.5244579C225.113476 37.6904716 223.405185 37.1795112 221.746911 36.6497999 220.350696 36.2019104 218.885652 35.9666726 217.465069 35.5954911 216.789191 35.4182104 216.203516 35.0862353 216.295428 34.2262535 216.381356 33.3884317 217.029019 33.071372 217.700622 33.0901229 219.087432 33.123363 220.509726 33.1421139 221.843954 33.4762198 223.208535 33.819275 224.475645 34.5339378 225.849204 35.1139354 228.19618 32.3192076 230.578211 29.489535 233 26.6053145 232.730247 26.4114137 232.547277 26.2622593 232.342932 26.1369696 228.759198 23.9409902 224.855266 22.657836 220.695261 22.1762803 216.031661 21.6354889 211.581383 22.2883592 207.559034 24.8406045 203.649971 27.3195511 201.703563 30.9052236 202.054968 35.5469094 202.403381 40.1101826 205.174865 42.8806196 209.226712 44.5409214 210.42072 45.0258864 211.700656 45.2947905 212.939551 45.6787566 214.206662 46.074229 215.503698 46.4100395 216.716089 46.9325061 217.114946 47.1042468 217.543729 47.8052726 217.502261 48.2139558 217.455664 48.6153943 216.875546 49.1766411 216.446763 49.2720999 215.764046 49.4157143 215.030455 49.428499 214.319095 49.3650018 213.811652 49.3057662 213.311904 49.2064719 212.821989 49.0781991L212.821989 49.09695C212.821989 49.09695 198.151891 45.6583012 194.558324 29.1123874L198.437888 29.0974719 198.437888 23.422359 183 23.422359 183 58.6296226 198.437888 58.6296226 198.437888 53.8946087C198.905574 54.2811318 199.356586 54.629727 199.781522 54.939542 199.772544 54.9506221 199.762712 54.9617021 199.751597 54.9732083 200.122239 55.2450955 200.36335 55.4509286 200.627545 55.6149985 201.040937 55.8741011 201.462453 56.0905881 201.881403 56.3271044 202.098573 56.4540987 202.300781 56.5683084 202.474773 56.6629149 208.008336 59.614468 213.963415 60.5997395 220.275456 59.6519696 223.850212 59.1162922 227.085962 57.7321391 229.509461 54.8871249 233.980686 49.644986 232.64432 41.8471925 226.625544 38.5244579M104.563847 33.3094291C103.877792 29.2457367 101.970423 25.9719354 98.1236468 24.0791694 93.4823113 21.792732 87.0399753 22.814919 83.3405767 26.4029781 82.9761902 26.7563057 82.6374347 27.1487032 82.1491653 27.6710506L82.1252431 22.7686297C82.1252431 22.7686297 81.4985667 21.3909917 79.7501096 22.3244221L67 31.6901523 67 59 82.4917655 59C82.4917655 58.5723547 82.4503288 46.1111856 82.5272216 40.25495 82.5438817 39.1524998 82.8617054 37.9736086 83.348266 36.9777513 83.9561464 35.7317618 85.1885673 35.3529538 86.5700748 35.5385357 87.95799 35.7245424 88.8161992 36.5106114 89.0592659 37.855125 89.2386825 38.8437628 89.3343713 39.8574564 89.33608 40.8609578 89.3582935 44.7891797 89.3544489 53.5344632 89.3531673 57.5871142 89.4744871 58.0521307 89.9888146 59.4522764 91.8103198 58.8517893L104.95301 49.1323067C104.96967 49.1246626 104.982913 49.1208405 105 49.1136211 105 45.8916299 104.996155 40.9985518 104.973515 37.7803826 104.962408 36.2859596 104.814603 34.7800704 104.563847 33.3094291M12.3853452 69.4506725C12.1646475 69.2987358 11.8791417 69.2684293 11.4727777 69.2684293L10.7673332 69.2684293 10.7673332 71.0621717 11.4727777 71.0621717C11.8791417 71.0621717 12.1646475 71.0233793 12.3853452 70.8714426 12.6152387 70.7191018 12.7685009 70.5243318 12.7685009 70.1602494 12.7685009 69.8062691 12.6152387 69.6030133 12.3853452 69.4506725L12.3853452 69.4506725zM15 75L12.9335863 75 11.3383448 72.321711 10.7787184 72.321711 10.7787184 75 9 75 9 68 11.7258794 68C12.5714494 68 13.2309152 68.1612307 13.7252956 68.4974312 14.2314991 68.840097 14.5612319 69.3993535 14.5612319 70.0996363 14.5612319 71.4286786 13.6368413 71.9467182 13.0754634 72.1075449L15 75z" mask="url(#logo-white-b)"/>
    <polygon fill="#FFFFFE" points="31 75 26 75 26 68 30.9 68 30.9 69.307 27.764 69.307 27.764 70.738 30.726 70.738 30.726 72.047 27.764 72.047 27.764 73.669 31 73.669" mask="url(#logo-white-b)"/>
    <polygon fill="#FFFFFE" points="49 75 47.381 75 47.381 72.067 44.616 72.067 44.616 75 43 75 43 68 44.616 68 44.616 70.708 47.381 70.708 47.381 68 49 68" mask="url(#logo-white-b)"/>
    <path fill="#FFFFFE" d="M65.3355911 72.3152343L64.4590714 69.8031587 63.584578 72.3152343 65.3355911 72.3152343zM68 75L66.2080584 75 65.7116476 73.5902357 63.2085215 73.5902357 62.7100845 75 61 75 63.6465787 68 65.3550423 68 68 75zM82.7679303 72.1588639C82.4980264 71.9855106 82.1968422 71.9661144 81.8036047 71.9661144L80.8035302 71.9661144 80.8035302 73.7509669 81.8036047 73.7509669C82.1968422 73.7509669 82.4980264 73.7299544 82.7679303 73.5582174 83.0378342 73.3969867 83.1593804 73.1634243 83.1593804 72.8591468 83.1593804 72.544363 83.0378342 72.3326214 82.7679303 72.1588639M82.3653087 69.3585407C82.1499218 69.2369105 81.950175 69.2171102 81.5551501 69.2171102L80.8035302 69.2171102 80.8035302 70.8286094 81.5118046 70.8286094C81.9153199 70.8286094 82.1499218 70.8092132 82.3653087 70.6766726 82.5882922 70.5348381 82.7442467 70.3525948 82.7442467 70.0079086 82.7442467 69.6737286 82.5882922 69.480575 82.3653087 69.3585407M84.149177 74.5433816C83.6540553 74.8670554 82.9596336 75 82.1615402 75L79 75 79 68 81.635585 68C82.3416251 68 83.0262158 68.0513191 83.5423401 68.2937713 84.059358 68.5362235 84.5285619 68.9940541 84.5285619 69.7634359 84.5285619 70.5348381 83.9807105 71.123997 83.3957697 71.3066443L83.3957697 71.3272528C84.3600953 71.5398026 85 72.1273451 85 72.9904751 85 73.7618773 84.6420645 74.2180916 84.149177 74.5433816" mask="url(#logo-white-b)"/>
    <polygon fill="#FFFFFE" points="97 75 99 75 99 68 97 68" mask="url(#logo-white-b)"/>
    <polygon fill="#FFFFFE" points="115 75 111 75 111 68 112.609 68 112.609 73.639 115 73.639" mask="url(#logo-white-b)"/>
    <polygon fill="#FFFFFE" points="126 75 128 75 128 68 126 68" mask="url(#logo-white-b)"/>
    <polygon fill="#FFFFFE" points="145 69.299 142.939 69.299 142.939 75 141.063 75 141.063 69.299 139 69.299 139 68 145 68" mask="url(#logo-white-b)"/>
    <path fill="#FFFFFE" d="M159.33482,72.3152343 L158.460073,69.8031587 L157.585326,72.3152343 L159.33482,72.3152343 Z M162,75 L160.209566,75 L159.710985,73.5902357 L157.207134,73.5902357 L156.708553,75 L155,75 L157.645318,68 L159.354276,68 L162,75 Z" mask="url(#logo-white-b)"/>
    <polygon fill="#FFFFFE" points="178 69.299 175.939 69.299 175.939 75 174.063 75 174.063 69.299 172 69.299 172 68 178 68" mask="url(#logo-white-b)"/>
    <polygon fill="#FFFFFE" points="189 75 191 75 191 68 189 68" mask="url(#logo-white-b)"/>
    <path fill="#FFFFFE" d="M205.999347 69.5480554C204.74272 69.5480554 203.792195 70.4792132 203.792195 71.9606616 203.792195 73.44211 204.74272 74.3835494 205.999347 74.3835494 207.25728 74.3835494 208.20824 73.44211 208.20824 71.9606616 208.20824 70.4890478 207.25728 69.5480554 205.999347 69.5480554M205.999347 76C203.759538 76 202 74.508717 202 72.0058114 202 69.5029057 203.759538 68 205.999347 68 208.240462 68 210 69.5029057 210 72.0058114 210 74.508717 208.240462 76 205.999347 76M229 75L227.137861 75 223.738831 70.2519771C223.738831 70.2519771 223.771892 71.0940946 223.771892 71.8331698L223.771892 75 222 75 222 68 223.940324 68 227.261169 72.7072101C227.261169 72.7072101 227.225874 71.9147954 227.225874 71.1753161L227.225874 68 229 68 229 75z" mask="url(#logo-white-b)"/>
  </g>
</svg>
